<?xml version="1.0" encoding="UTF-8"?>
<svg id="Layer_2" data-name="Layer 2" xmlns="http://www.w3.org/2000/svg" viewBox="0 0 62.08 22.63">
  <defs>
    <style>
      .cls-1 {
        fill: #fff;
      }
    </style>
  </defs>
  <g id="Layer_1-2" data-name="Layer 1">
    <g id="Group_248" data-name="Group 248">
      <path id="Path_203" data-name="Path 203" class="cls-1" d="M27.18,8.44l-5.68,13.49h3.88l.96-2.41h5.19l.96,2.41h3.98l-5.7-13.49h-3.58ZM27.43,16.63l1.51-3.79,1.49,3.79h-3Z"/>
      <path id="Path_204" data-name="Path 204" class="cls-1" d="M46.91,14.93c1.26-.45,2.09-1.65,2.07-2.99v-.04c.02-.81-.29-1.6-.86-2.18-1.01-.86-2.33-1.29-3.65-1.19h-6.87v13.4h6.91c3.2,0,5.07-1.4,5.07-3.69v-.04c0-1.82-1.03-2.74-2.66-3.28ZM41.21,11.53h2.43c1.09,0,1.68.4,1.68,1.15v.04c0,.78-.65,1.17-1.78,1.17h-2.33v-2.36ZM45.86,17.73c0,.78-.63,1.22-1.78,1.22h-2.87v-2.47h2.83c1.24,0,1.82.48,1.82,1.2v.04Z"/>
      <path id="Path_205" data-name="Path 205" class="cls-1" d="M57.11,13.59c-1.88-.42-2.33-.69-2.33-1.3v-.04c0-.5.44-.86,1.34-.86,1.36.04,2.67.5,3.75,1.32l1.86-2.62c-1.57-1.23-3.52-1.86-5.51-1.78-3.21,0-5.19,1.8-5.19,4.29v.04c0,2.74,2.2,3.54,5.05,4.19,1.84.44,2.28.73,2.28,1.3v.04c0,.58-.54.92-1.55.92-1.59-.02-3.12-.59-4.34-1.61l-2.07,2.47c1.75,1.48,3.98,2.27,6.28,2.22,3.25,0,5.42-1.63,5.42-4.36v-.04c0-2.51-1.91-3.5-4.97-4.17Z"/>
      <path id="Path_206" data-name="Path 206" class="cls-1" d="M7.16,1.8H.63c.25.44.56.84.92,1.19h6.34c-.34-.33-.59-.74-.73-1.19Z"/>
      <path id="Path_207" data-name="Path 207" class="cls-1" d="M8.16,3.29H1.9c.71.56,1.52.97,2.4,1.19h4c-.1-.39-.15-.79-.13-1.19Z"/>
      <path id="Path_208" data-name="Path 208" class="cls-1" d="M4.96,4.79c.08.41.21.81.4,1.19h3.46c-.18-.39-.33-.78-.45-1.19h-3.42Z"/>
      <path id="Path_209" data-name="Path 209" class="cls-1" d="M9.66,7.47c-.26-.38-.49-.78-.69-1.19h-3.45c.23.42.5.82.8,1.19h3.34Z"/>
      <path id="Path_210" data-name="Path 210" class="cls-1" d="M12.51,7.78h-2.28c.34.44.73.84,1.16,1.19h2.59c-.57-.29-1.07-.69-1.48-1.19Z"/>
      <path id="Path_211" data-name="Path 211" class="cls-1" d="M8.7,4.79c.12.41.28.81.46,1.19h2.39c-.13-.39-.22-.79-.28-1.19h-2.56Z"/>
      <path id="Path_212" data-name="Path 212" class="cls-1" d="M14,9.27h-2.18c.28.18.57.32.88.43.4-.13.85-.28,1.3-.43Z"/>
      <path id="Path_213" data-name="Path 213" class="cls-1" d="M7.88,8.97h3.07c-.4-.36-.75-.76-1.07-1.19h-3.3c.39.44.83.84,1.3,1.19Z"/>
      <path id="Path_214" data-name="Path 214" class="cls-1" d="M8.46,3.3c-.02.4.03.8.14,1.19h2.61c-.05-.39-.06-.79-.03-1.19h-2.72Z"/>
      <path id="Path_215" data-name="Path 215" class="cls-1" d="M7.01,1.19C6.95.79,6.93.4,6.96,0H0c.07.52.23,1.03.47,1.49h6.61c-.02-.1-.04-.2-.06-.31Z"/>
      <path id="Path_216" data-name="Path 216" class="cls-1" d="M7.49,1.8c.16.48.47.9.89,1.19h2.73c-.34-.31-.58-.73-.66-1.19h-2.97Z"/>
      <path id="Path_217" data-name="Path 217" class="cls-1" d="M9.3,6.28c.21.41.45.81.71,1.19h2.27c-.25-.37-.46-.77-.62-1.19h-2.35Z"/>
      <path id="Path_219" data-name="Path 219" class="cls-1" d="M20.87,14.71c-.22-.24-.57-.33-.88-.21-.12.05-.24.13-.33.24l-.72-.5-.99.27v.79l-1.44.51-.5-.69c.12-.49.12-1.01.01-1.5.97-.85,5.97-4.78,6.53-5.17.18-.14.39-.23.62-.26.17.02.31.13.37.29,0,0,.1-.78-.55-.94-.3-.08-.6-.12-.91-.13-.29-.53-.75-.43-1.62-.26-.11.02-.24.05-.37.07-1.73.34-3.52.19-5.17-.46-1.26-.62-1.53-2.56-.74-5.32.17-.61-.18-1.24-.79-1.42C13.28.01,13.17,0,13.06,0h-5.79c-.04.5,0,1.01.12,1.49h3c-.05-.39-.06-.79-.01-1.19h2.69c.47,0,.84.38.84.85,0,.08-.01.15-.03.23-.83,2.92-.51,4.99.9,5.68,1.7.67,3.56.83,5.36.48l.37-.08c.88-.18,1.12-.21,1.29.1-.31.08-.63.13-.95.15.2.06.42.09.63.08l.25.11.36-.19h.01c.24,0,.48.03.72.1-.23.06-.44.16-.64.28.11,0,.23,0,.34,0h0s-.1.06-.15.1c-.13.09-1.01.78-2.11,1.63,0-.17-.04-.33-.12-.47-.61-.76-1.52-1.2-2.5-1.2h-.12c-.67-.07-1.33-.17-1.99-.31-1.2-.13-2.21-.94-2.61-2.07-.28-1.31-.29-2.67-.02-3.99-.43,1.32-.53,2.72-.27,4.08.42,1.24,1.52,2.13,2.83,2.28.67.14,1.35.24,2.03.3h.12c.12.03.23.04.34.06-.36.04-.71.18-1,.4.57-.13,1.16-.07,1.69.15-.38.02-.75.17-1.03.43.45-.08.91-.07,1.35.03-.35.06-.68.23-.94.47.5-.05,1-.03,1.49.07-1.04.52-2.22.66-3.35.4.48.31,1.01.54,1.57.68,0,0-.39,1.12-2.58,2.77-.66.42-1.37.75-2.12.97.16-1.09.2-2.2.12-3.3,0,.03-.3,2.7-1.37,3.64,0-.18,0-.37-.02-.55-.22.42-.6.74-1.07.86-.22-.26-.35-.58-.37-.91l-.02-.35-.24.26h0c-.11-.77-.03-1.55.23-2.28-.32.34-.59.73-.81,1.14-.11.2-.2.41-.27.62-.26-.56-.24-1.21.04-1.76l.03-.06-.03-.06c-.25-.42-.17-.95.19-1.28l1.71-.62c.11-.04.53-.18,1.11-.38-.34-.16-.65-.35-.95-.58h-2.99c.65.43,1.38.73,2.14.89l-1.16.42h-.01l-4.84,1.66c-.07.45-.08.9-.02,1.35l4.47-1.53s.03.07.04.11c-.03.07-.06.15-.09.23l-4.36,1.49c.09.4.24.79.44,1.15l1.53-.52c-.03.12-.06.23-.09.35l-1.28.44c.34.51.74.97,1.21,1.36.03.22.07.45.12.66.06.28.11.55.15.79.04.46.01.92-.08,1.36.66.16,1.27.48,1.77.92h0s.06.06.09.08h0c.88.77,1.95,1.28,3.1,1.5,0,.21.04.42.1.63,0,0,2.42-.12,3.15-.69h0c-.75-.52-1.43-1.13-2.04-1.8-.29.19-.55.44-.74.74-.41-.2-.8-.43-1.16-.71.18,0,.35-.06.5-.15.29-.21.46-.54.47-.9,0-.08.01-.16.02-.25h0c0-.07,0-.14,0-.21l.31-.1h0s.13.2.13.2l.21-.32.19-.06h0l.09.31.31-.45,2.19-.72c.01.06.03.12.05.18l.09.21.16-.17.16-.16c0,.06,0,.09,0,.09l.04.35.38-.46h0s.03.43.03.43l.57-.77c.11.79.79,1.39,1.59,1.4.68-.05,1.28-.47,1.56-1.1.34-.19.62-.48.78-.84.5-.27.69-.9.42-1.4,0,0,0-.01-.01-.02.04-.2-.01-.4-.14-.56ZM18.66,14.97l.79-.3v.95s-.79.26-.79.26v-.92ZM18.08,15.58l.51.33-1.61.54-.29-.39,1.38-.49ZM9.04,15.14c.01.25.07.5.17.74l.11.26.16-.24h0c.08.26.19.51.34.74-.82-.36-1.23-.81-1.19-1.35h0l.42-.16ZM10.8,17.94c-.03.11-.1.21-.2.28-.02-.05-.04-.1-.07-.15-.15-.2-.38-.33-.63-.37.07-.25.04-.51-.09-.73.15.06.31.12.48.17.12.04.24.08.35.14h0c.14.19.2.43.17.67h0ZM9.24,16.83c.16.15.45.49.27.85-.03,0-.05,0-.07,0-.2.03-.41.05-.62.05.24-.25.38-.56.42-.9h0ZM8.48,17.54c-.37-.55-.41-1.25-.11-1.84.09.3.28.56.53.74.04.41-.11.82-.41,1.1h0ZM8.78,13.73c.03.1.06.2.1.29l-.9.31c-.04-.09-.08-.19-.12-.28l.92-.32ZM8.11,15.16c-.13.07-.26.14-.38.23-.18-.52-.29-1.06-.31-1.62.17.49.4.96.69,1.39h0ZM8.1,17.62c-.34-.1-.59-.39-.65-.74-.11-.38-.01-.8.27-1.08l.05-.04.06-.04c.06-.04.13-.08.2-.12-.3.65-.28,1.41.07,2.03h0ZM13.36,21.78c-.22.02-.43.03-.65.03-3.3.08-6.05-2.52-6.15-5.82,0-.81.18-1.62.55-2.34v.19c.01.53.11,1.06.29,1.55.03.09.06.16.07.21-.34.35-.47.86-.34,1.33.15.87,1,1.26,2.34,1.06.29-.07.59.03.79.25.05.07.06.16.02.23h0c-.33.19-.51.56-.46.94.19.98,2.16,1.91,3.53,2.36ZM11.09,19.75c-.22.11-.47.14-.71.07-.12-.13-.21-.28-.25-.46v-.03c.18.08.37.13.56.13h0c.25,0,.49-.08.69-.23-.03.21-.14.4-.31.52h0ZM11.44,18.65c-.15.26-.43.43-.73.44-.17,0-.34-.04-.49-.13.08-.12.19-.22.32-.3h0c.29-.11.52-.34.61-.63.03-.12.04-.24.02-.35.2.28.3.63.27.97h0ZM11.49,16.33l-.07-.37-.21.31c-.23.28-.55.46-.9.52-.32-.34-.52-.78-.59-1.24l-.02-.35-.24.26-.06.06c-.14-.68-.02-1.39.34-1.99-.08.46-.06.93.08,1.37l.1.3.14-.21c.07.31.24.6.47.83l.04.03h.06c.31-.04.6-.16.85-.35l.02.22.2-.1c.49-.24.88-.64,1.11-1.12-.09.85-.57,1.62-1.29,2.08,0-.07-.02-.14-.03-.23h0ZM12.04,17.74c-.05.05-.18.21-.28.34-.05-.15-.01-.32.09-.44l.08-.09-.06-.1c-.04-.07-.11-.17-.17-.29.05-.04.12-.08.19-.14l.32.56-.15.15ZM12.26,18.08c-.04-.23,0-.46.11-.67h0l-.3-.55c.06-.05.11-.11.17-.16l.47.72-.44.66ZM12.86,17.89c-.01-.15.03-.3.12-.43l-.56-.99c.06-.08.11-.16.15-.25l.63,1.18-.34.48ZM13.36,15.54l-.25.29c-.08.09-.15.17-.2.22-.09-.27-.08-.56.04-.82,1-.29,1.95-.76,2.8-1.37.2.91-.15,1.84-.9,2.39-.02-.07-.05-.15-.07-.23l-.11-.38-.17.36c-.19.35-.48.64-.84.82-.15-.28-.24-.58-.27-.9v-.38ZM15.21,17.06l-1.82.62.17-.24-.11-.22,1.66-.59.02.03c.06.1.11.2.15.27-.02.04-.04.08-.06.12h0ZM15.47,17.32c0-.15.04-.3.12-.43-.12-.13-.24-.27-.34-.41.07-.04.15-.09.21-.15l.39.61c-.15.15-.34.33-.39.39h0ZM15.93,17.25c0-.17.03-.34.1-.49h0l-.4-.61s.07-.08.1-.13l.56.77-.36.46ZM16.38,17.08c-.02-.15,0-.3.05-.44h0s-.56-.83-.56-.83c.03-.06.06-.13.08-.2l.79,1.01-.36.46ZM18.27,18.31c-.74-.02-1.33-.63-1.31-1.38h0l.57-.19c-.04.42.24.8.65.89.22.09.46.13.69.13.17,0,.35-.02.52-.07-.27.35-.67.57-1.12.61ZM18.73,17.44c.66-.06,1.17-.61,1.18-1.27.17.05.35.03.51-.05.12.33-.31,1.45-1.69,1.32ZM19.94,15.53c.08-.08.18-.13.29-.13.12,0,.21.11.21.23,0,.03-.01.07-.03.1-.14.17-.39.2-.56.06,0,0-.01-.01-.02-.02-.23-.25-.21-.64.05-.86.06-.06.14-.1.22-.13.26-.11.55-.01.7.23-.24-.18-.57-.13-.75.11-.09.12-.12.26-.1.41ZM20.65,16.41c.04-.14.04-.29,0-.43.11-.09.19-.2.24-.33.09.28,0,.59-.24.76h0Z"/>
      <path id="Path_220" data-name="Path 220" class="cls-1" d="M18.81,4.73c-1.56-.46-3.2-.53-4.79-.2.02.35.08.69.2,1.02.92-.14,1.85-.15,2.77-.05.56-.36,1.17-.62,1.82-.77Z"/>
      <path id="Path_221" data-name="Path 221" class="cls-1" d="M14.01,4.22c1.79-.37,3.65-.23,5.37.39-.09-.5-.01-1.02.22-1.48-1.79-.47-3.66-.54-5.48-.2-.07.43-.11.86-.11,1.29Z"/>
      <path id="Path_222" data-name="Path 222" class="cls-1" d="M19.78,4.77c.95.42,1.8,1.03,2.52,1.78l1.16-.99c-.96-1.08-2.19-1.88-3.56-2.34-.26.45-.32,1-.15,1.5l.03.05Z"/>
      <path id="Path_223" data-name="Path 223" class="cls-1" d="M21.96,6.64c-.73-.73-1.59-1.3-2.54-1.69-.68.08-1.34.29-1.94.62.95.16,1.87.49,2.69.99.59-.09,1.2-.06,1.78.08Z"/>
      <path id="Path_224" data-name="Path 224" class="cls-1" d="M18.7,7.11c.32-.2.66-.35,1.02-.45-.83-.44-1.73-.73-2.66-.84-.43.28-.8.63-1.1,1.05.72.18,1.45.26,2.19.26.18,0,.36,0,.55-.01Z"/>
      <path id="Path_225" data-name="Path 225" class="cls-1" d="M15.04,6.53c.2.1.41.18.62.25.26-.39.58-.73.95-1.01-.75-.06-1.51-.03-2.26.07.15.3.39.54.69.69Z"/>
    </g>
  </g>
</svg>