<?xml version="1.0" encoding="UTF-8"?>
<svg id="Layer_2" data-name="Layer 2" xmlns="http://www.w3.org/2000/svg" viewBox="0 0 8 8">
  <defs>
    <style>
      .cls-1 {
        fill: #fff;
      }
    </style>
  </defs>
  <g id="Layer_1-2" data-name="Layer 1">
    <path id="close_x" data-name="close x" class="cls-1" d="M3.27,4c-.41-.41-.81-.81-1.22-1.21C1.43,2.16.8,1.54.18.91-.04.72-.06.39.13.18.32-.04.65-.06.86.13c.02.01.03.03.05.05.34.33.67.67,1.01,1.01l2.11,2.11s.04-.08.06-.11L7.09.18c.19-.22.52-.24.73-.05.22.19.24.52.05.73-.01.02-.03.03-.05.05-.37.38-.75.75-1.13,1.13l-1.89,1.89s-.05.05-.08.08c.28.28.55.55.83.82.75.75,1.51,1.51,2.26,2.26.22.19.24.51.05.73-.04.04-.08.08-.14.11-.21.12-.48.08-.65-.11l-1.26-1.26-1.75-1.75s-.05-.05-.08-.07c-.03.03-.06.05-.09.08L.92,7.82c-.19.22-.52.24-.73.05-.22-.19-.24-.52-.05-.73.01-.02.03-.03.05-.05l1.13-1.13,1.89-1.89s.04-.04.07-.07"/>
  </g>
</svg>