<?xml version="1.0" encoding="UTF-8"?>
<svg id="Layer_2" data-name="Layer 2" xmlns="http://www.w3.org/2000/svg" viewBox="0 0 12 11.99">
  <defs>
    <style>
      .cls-1 {
        fill: #626266;
      }
    </style>
  </defs>
  <g id="Layer_1-2" data-name="Layer 1">
    <path id="X" class="cls-1" d="M4.9,5.99c-.61-.61-1.22-1.22-1.82-1.82-.94-.94-1.88-1.88-2.81-2.82C-.06,1.07-.09.58.19.26c.07-.08.15-.14.24-.18C.75-.07,1.12,0,1.36.26c.51.5,1.01,1.01,1.51,1.51,1.04,1.04,2.08,2.08,3.17,3.17.02-.06.05-.12.09-.17,1.5-1.5,3-3.01,4.5-4.51.29-.32.78-.35,1.1-.07.32.28.35.78.07,1.1-.02.02-.04.04-.06.06-.56.56-1.13,1.13-1.69,1.69l-2.84,2.84s-.07.08-.12.13c.42.42.83.82,1.24,1.24,1.13,1.13,2.26,2.26,3.39,3.39.32.28.36.77.08,1.1-.06.07-.13.12-.2.17-.32.18-.72.11-.97-.16-.63-.63-1.26-1.26-1.89-1.89l-2.63-2.63s-.08-.07-.12-.11c-.04.04-.09.08-.13.12L1.37,11.73c-.28.32-.78.35-1.1.07-.32-.28-.35-.78-.07-1.1.02-.02.04-.04.06-.07.57-.57,1.13-1.13,1.7-1.7l2.84-2.84s.05-.06.09-.1Z"/>
  </g>
</svg>