<?xml version="1.0" encoding="UTF-8"?>
<svg id="Layer_2" data-name="Layer 2" xmlns="http://www.w3.org/2000/svg" viewBox="0 0 12 10.55">
  <defs>
    <style>
      .cls-1 {
        fill: #626266;
      }
    </style>
  </defs>
  <g id="Icons">
    <path class="cls-1" d="M12,10.19c0,.21-.16.36-.35.36H2.45c-.19-.03-.33-.17-.34-.35v-1.05s-1.76,0-1.76,0c-.17,0-.3-.14-.34-.27-.05-.19.05-.3.18-.42,1.24-1.16,1.9-3.38,1.91-5.06V1.03c0-.15.14-.32.3-.32h1.84s.01-.44.01-.44c0-.18.2-.28.35-.27.15,0,.33.12.33.3v.41s1.76,0,1.76,0v-.36c.01-.19.17-.34.35-.35s.35.14.36.33v.38s1.78,0,1.78,0v-.34c0-.21.16-.37.36-.36s.34.17.35.37v.33s1.82,0,1.82,0c.16,0,.28.19.28.35v9.13ZM7.41,1.4v.37c0,.19-.18.34-.36.34-.16,0-.33-.14-.34-.32v-.38s-1.76,0-1.76,0v.34c0,.2-.14.36-.33.37-.17,0-.34-.12-.36-.31v-.4s-1.43,0-1.43,0v1.41s8.48,0,8.48,0v-1.41s-1.4,0-1.4,0v.38c-.02.19-.2.34-.38.32s-.33-.15-.33-.34v-.37s-1.78,0-1.78,0ZM9.41,8.43c1.26-1.31,1.81-3.15,1.88-4.91H2.81c-.06,1.78-.57,3.51-1.65,4.91h8.25ZM2.82,9.15v.7s8.48,0,8.48,0v-3c-.34.69-.69,1.32-1.19,1.88-.15.17-.29.32-.49.43H2.82Z"/>
  </g>
</svg>