<?xml version="1.0" encoding="UTF-8"?>
<svg id="Layer_2" data-name="Layer 2" xmlns="http://www.w3.org/2000/svg" viewBox="0 0 16 10.71">
  <defs>
    <style>
      .cls-1 {
        fill: #fff;
      }

      .cls-2 {
        fill: #f94747;
      }
    </style>
  </defs>
  <g id="Layer_1-2" data-name="Layer 1">
    <g id="tab_X" data-name="tab X">
      <g id="Group_4054" data-name="Group 4054">
        <path id="Path_8454" data-name="Path 8454" class="cls-1" d="M13.98,0H5.11c-.58,0-1.13.24-1.5.69C2.52,1.96,1.43,3.24.34,4.52c-.46.46-.46,1.21,0,1.67.42.49.84.98,1.26,1.47.64.75,1.27,1.49,1.91,2.24.42.53,1.07.83,1.74.81h.02c.98,0,1.95,0,2.93,0h5.76c1.11.01,2.03-.88,2.04-1.99,0-.01,0-.03,0-.04V2.03C16,.91,15.09,0,13.98,0"/>
        <path id="Path_8455" data-name="Path 8455" class="cls-2" d="M6.71,7.97c.21.09.45.03.6-.14.45-.44.9-.88,1.33-1.33.09-.11.21-.17.35-.18h0c.13,0,.25.07.34.17.33.34.66.68,1,1.01l.32.32c.13.15.33.22.52.18.21-.03.39-.18.44-.39.07-.2.02-.43-.14-.58l-.23-.24c-.35-.35-.7-.71-1.06-1.05-.12-.1-.2-.24-.21-.39.01-.15.08-.29.2-.38.39-.36.76-.74,1.13-1.12l.11-.12c.13-.12.21-.29.22-.47,0-.15-.07-.29-.18-.39-.24-.22-.61-.2-.82.03,0,0-.01.02-.02.02l-.26.25c-.34.34-.68.68-1.02,1.02-.08.1-.21.16-.34.17h0c-.14-.01-.26-.08-.35-.18-.26-.26-.52-.52-.78-.78l-.5-.5c-.12-.13-.28-.2-.46-.21-.23,0-.43.13-.51.34-.1.21-.06.46.11.62.44.45.88.89,1.33,1.33.1.09.17.21.18.35,0,.14-.07.26-.18.35-.34.33-.68.67-1.01,1.01l-.3.3c-.14.12-.22.3-.2.48.01.22.16.41.38.48"/>
      </g>
    </g>
  </g>
</svg>