<?xml version="1.0" encoding="UTF-8"?>
<svg id="Layer_2" data-name="Layer 2" xmlns="http://www.w3.org/2000/svg" xmlns:xlink="http://www.w3.org/1999/xlink" viewBox="0 0 14.61 16">
  <defs>
    <style>
      .cls-1 {
        fill: #1473e6;
      }

      .cls-2 {
        fill: none;
      }

      .cls-3 {
        clip-path: url(#clippath);
      }
    </style>
    <clipPath id="clippath">
      <rect class="cls-2" width="14.61" height="16"/>
    </clipPath>
  </defs>
  <g id="Layer_1-2" data-name="Layer 1">
    <g id="trash">
      <g class="cls-3">
        <g id="Group_4037" data-name="Group 4037">
          <path id="Path_8433" data-name="Path 8433" class="cls-1" d="M1.76,5.97c-.07.07-.1.17-.09.27l.79,7.95c.12.92.91,1.61,1.84,1.62h6.06c.93-.04,1.7-.75,1.79-1.68l.77-7.88c0-.1-.02-.19-.09-.27-.14-.14-.37-.13-.51.01-.05.05-.08.12-.09.19l-.78,7.94c-.12.58-.63,1.01-1.22,1.01h-5.98c-.59-.06-1.07-.53-1.13-1.12l-.77-7.82c-.02-.19-.18-.33-.37-.31-.09,0-.17.05-.23.11"/>
          <path id="Path_8434" data-name="Path 8434" class="cls-1" d="M4.31,16c-1.03,0-1.9-.77-2.04-1.79l-.79-7.96c-.02-.15.03-.3.14-.41h0c.2-.22.54-.24.76-.04.1.09.16.21.17.35l.77,7.82c.05.5.45.9.95.94h5.96c.5,0,.93-.36,1.03-.85l.78-7.92c.04-.3.32-.51.63-.47.12.02.23.07.31.16.1.11.15.26.14.41l-.78,7.89c-.1,1.03-.95,1.82-1.98,1.86h-6.07ZM1.91,6.1s-.04.07-.04.12l.79,7.95c.11.83.82,1.44,1.65,1.44h6.07c.83-.03,1.51-.67,1.6-1.5l.78-7.88s-.01-.08-.04-.12c-.07-.06-.18-.04-.23.03-.01.02-.02.04-.03.06l-.78,7.94c-.13.68-.72,1.18-1.42,1.19h-5.98c-.69-.07-1.25-.61-1.32-1.3l-.77-7.82c-.01-.08-.09-.14-.18-.13-.03,0-.06.02-.08.04"/>
          <path id="Path_8435" data-name="Path 8435" class="cls-1" d="M14.41,3.13c0-.19-.15-.35-.35-.35h-4.42v-.39c-.09-1.29-1.19-2.27-2.48-2.19-1.24.07-2.2,1.1-2.2,2.33v.25H.48c-.16.03-.28.18-.28.35v.07c.03.16.18.28.34.28h13.59c.16-.04.28-.18.28-.35M8.95,2.78h-3.3l.02-.38c.06-.91.85-1.59,1.75-1.53.87.06,1.54.78,1.53,1.65v.25Z"/>
          <path id="Path_8436" data-name="Path 8436" class="cls-1" d="M.54,3.67c-.26,0-.49-.19-.53-.45v-.08c-.01-.27.18-.5.44-.55h.07s4.25,0,4.25,0v-.06C4.77,1.13,5.9,0,7.29,0c1.35,0,2.46,1.04,2.53,2.39v.21h4.24c.3,0,.54.25.53.55,0,.26-.19.48-.44.53H.54ZM.54,2.98h-.05c-.06.02-.1.08-.1.15v.05c.02.06.08.1.15.1h13.59c.05-.03.09-.09.09-.15,0-.08-.07-.15-.15-.15h-4.61l-.02-.58c-.08-1.18-1.1-2.07-2.28-1.99-1.12.08-1.99,1-1.99,2.12v.45H.54ZM9.14,2.98h-3.7l.03-.58c.07-1.01.96-1.77,1.97-1.7.96.07,1.7.87,1.7,1.83v.44ZM5.85,2.59h2.9v-.06c0-.8-.65-1.45-1.45-1.45-.76,0-1.39.58-1.45,1.34v.17Z"/>
        </g>
      </g>
    </g>
  </g>
</svg>