<?xml version="1.0" encoding="UTF-8"?>
<svg id="Layer_2" data-name="Layer 2" xmlns="http://www.w3.org/2000/svg" xmlns:xlink="http://www.w3.org/1999/xlink" viewBox="0 0 30 30">
  <defs>
    <style>
      .cls-1 {
        fill: #fff;
      }

      .cls-2 {
        fill: none;
      }

      .cls-3 {
        fill: #f94747;
      }

      .cls-4 {
        clip-path: url(#clippath);
      }
    </style>
    <clipPath id="clippath">
      <rect class="cls-2" x="7.71" y="6.47" width="14.61" height="16"/>
    </clipPath>
  </defs>
  <g id="Layer_1-2" data-name="Layer 1">
    <g id="Delete">
      <rect id="Rectangle_510" data-name="Rectangle 510" class="cls-3" width="30" height="30" rx="5" ry="5"/>
    </g>
    <g id="trash_bin" data-name="trash bin">
      <g class="cls-4">
        <g id="Group_4044" data-name="Group 4044">
          <path id="Path_8443" data-name="Path 8443" class="cls-1" d="M20.28,12.14s-.07-.02-.1-.02h-10.3s-.06,0-.08.02c-.02,0-.04-.01-.07-.01-.15,0-.3.06-.4.18h0c-.1.11-.15.26-.14.42l.79,7.96c.14,1.02,1.01,1.79,2.04,1.79h6.07c1.03-.04,1.87-.83,1.98-1.86l.77-7.89c.01-.15-.04-.3-.14-.41-.11-.12-.27-.18-.43-.16"/>
          <path id="Path_8444" data-name="Path 8444" class="cls-1" d="M21.78,9.05h-4.23v-.21c-.08-1.39-1.28-2.46-2.67-2.38-1.34.08-2.39,1.19-2.39,2.53v.06h-4.33c-.26.05-.45.29-.45.55v.08c.05.26.28.45.54.45h13.62c.29-.05.49-.33.45-.63-.04-.26-.27-.46-.54-.45M16.47,9.05h-2.9v-.17c.07-.8.76-1.4,1.56-1.34.76.06,1.34.69,1.34,1.45v.06Z"/>
        </g>
      </g>
    </g>
  </g>
</svg>