<?xml version="1.0" encoding="UTF-8"?>
<svg id="Layer_2" data-name="Layer 2" xmlns="http://www.w3.org/2000/svg" viewBox="0 0 20 15.84">
  <defs>
    <style>
      .cls-1 {
        fill: #626266;
      }
    </style>
  </defs>
  <g id="Icons">
    <path id="Files_icon" data-name="Files icon" class="cls-1" d="M17.5,4.99h1.21c.67-.04,1.25.48,1.28,1.16,0,.14-.01.29-.05.43-.37,1.36-.78,2.71-1.18,4.07-.35,1.2-.71,2.39-1.05,3.6-.16.99-1.07,1.69-2.07,1.58H1.95c-.77.05-1.49-.39-1.79-1.1-.1-.24-.16-.49-.16-.75C0,9.88,0,5.78,0,1.68-.01.78.71.02,1.61,0c.03,0,.05,0,.08,0C3.26,0,4.83,0,6.4,0c.64,0,1.24.28,1.63.78.24.29.49.59.72.89.2.27.52.42.85.41,2.03,0,4.06,0,6.09,0,.92-.07,1.73.61,1.81,1.54,0,.09,0,.17,0,.26v1.11ZM3.47,14.99h12.15c.61.1,1.19-.31,1.29-.91,0-.03,0-.05.01-.08.72-2.48,1.44-4.96,2.17-7.44.15-.53,0-.74-.54-.74H7.07c-.57-.07-1.1.33-1.19.9-.8,2.75-1.6,5.51-2.41,8.27h0ZM16.67,4.99v-1.09c0-.69-.3-.99-1-.99h-6.09c-.56.02-1.09-.23-1.43-.67-.23-.29-.48-.57-.7-.87-.27-.36-.7-.57-1.15-.55-1.5,0-3,0-4.5,0-.46-.06-.89.27-.95.74,0,.07,0,.14,0,.21v12.11c-.04.56.38,1.04.94,1.09.5.04.95-.3,1.06-.79.75-2.55,1.49-5.09,2.22-7.64.18-.96,1.05-1.63,2.02-1.55h9.58,0Z"/>
  </g>
</svg>