<?xml version="1.0" encoding="UTF-8"?>
<svg id="Layer_2" data-name="Layer 2" xmlns="http://www.w3.org/2000/svg" viewBox="0 0 20 15.84">
  <defs>
    <style>
      .cls-1 {
        fill: #1473e6;
      }
    </style>
  </defs>
  <g id="Icons">
    <g>
      <path class="cls-1" d="M1.31,15.84c.81-.28,1.32-.82,1.54-1.64.1-.39.22-.77.33-1.15.65-2.22,1.29-4.45,1.94-6.67.26-.87.94-1.38,1.86-1.38,3.88,0,7.76,0,11.64,0,1.01,0,1.58.72,1.3,1.69-.42,1.51-.88,3.01-1.31,4.52-.29,1-.59,2-.87,3-.29,1.04-1.03,1.62-2.11,1.62-4.71,0-9.41,0-14.12,0-.07,0-.14,0-.21,0Z"/>
      <path class="cls-1" d="M17.49,4.17h-.32c-3.36,0-6.72,0-10.08,0-1.44,0-2.41.75-2.81,2.13-.75,2.62-1.52,5.23-2.29,7.84-.15.51-.59.85-1.08.87-.49.02-.87-.32-.9-.81,0-.07,0-.14,0-.21,0-4.05,0-8.09,0-12.14C0,.68.67,0,1.84,0,3.32,0,4.81,0,6.29,0c.75,0,1.35.27,1.81.86.22.28.45.55.67.83.21.28.48.39.83.39,2.01,0,4.03.02,6.04-.01,1.07-.02,2.02.75,1.84,2.1Z"/>
    </g>
  </g>
</svg>