<?xml version="1.0" encoding="UTF-8"?>
<svg id="Layer_2" data-name="Layer 2" xmlns="http://www.w3.org/2000/svg" xmlns:xlink="http://www.w3.org/1999/xlink" viewBox="0 0 16 14.5">
  <defs>
    <style>
      .cls-1 {
        fill: url(#linear-gradient-2);
      }

      .cls-2 {
        fill: url(#linear-gradient-3);
      }

      .cls-3 {
        fill: url(#linear-gradient);
      }
    </style>
    <linearGradient id="linear-gradient" x1="-86.68" y1="978.72" x2="-86.68" y2="977.72" gradientTransform="translate(1394.83 10276.57) scale(16 -10.5)" gradientUnits="userSpaceOnUse">
      <stop offset="0" stop-color="#ffce0d"/>
      <stop offset=".82" stop-color="#ff6817"/>
    </linearGradient>
    <linearGradient id="linear-gradient-2" x1="-93.25" y1="989.01" x2="-93.25" y2="988.01" gradientTransform="translate(1244.44 5493.93) scale(13.26 -5.55)" gradientUnits="userSpaceOnUse">
      <stop offset="0" stop-color="#fbfbfb"/>
      <stop offset="1" stop-color="#f1d27c"/>
    </linearGradient>
    <linearGradient id="linear-gradient-3" x1="-86.68" y1="978.72" x2="-86.68" y2="977.72" gradientTransform="translate(1394.83 10280.57) scale(16 -10.5)" gradientUnits="userSpaceOnUse">
      <stop offset="0" stop-color="#ffce0d"/>
      <stop offset="1" stop-color="#ff9c14"/>
    </linearGradient>
  </defs>
  <g id="Layer_1-2" data-name="Layer 1">
    <g id="Group_4034" data-name="Group 4034">
      <path id="Path_8416" data-name="Path 8416" class="cls-3" d="M16,2.86v6.64c0,.55-.45,1-1,1H1c-.55,0-1-.45-1-1V1C0,.45.45,0,1,0h4.43c.37,0,.71.21.88.54l.41.78c.17.33.51.54.88.54h7.4c.55,0,1,.45,1,1,0,0,0,0,0,0Z"/>
      <path id="Path_8417" data-name="Path 8417" class="cls-1" d="M1.87,2.97h12.26c.28,0,.5.22.5.5v5.05H1.37V3.47c0-.28.22-.5.5-.5,0,0,0,0,0,0Z"/>
      <path id="Path_8418" data-name="Path 8418" class="cls-2" d="M0,6.85v6.65c0,.55.45,1,1,1h14c.55,0,1-.45,1-1V5c0-.55-.45-1-1-1h-4.43c-.37,0-.71.21-.89.54l-.41.78c-.17.33-.51.54-.89.54H1c-.55,0-1,.45-1,1Z"/>
    </g>
  </g>
</svg>