<?xml version="1.0" encoding="UTF-8"?>
<svg id="Layer_2" data-name="Layer 2" xmlns="http://www.w3.org/2000/svg" viewBox="0 0 16 16">
  <defs>
    <style>
      .cls-1 {
        fill: #fff;
      }
    </style>
  </defs>
  <g id="Icons">
    <path id="Path_202" data-name="Path 202" class="cls-1" d="M8,16C3.58,16,0,12.42,0,8S3.58,0,8,0s8,3.58,8,8-3.58,8-8,8ZM2.67,12.58c.46-1.75,1.73-3.16,3.42-3.8-1.53-1.06-1.92-3.16-.86-4.69,1.06-1.53,3.16-1.92,4.69-.86s1.92,3.16.86,4.69c-.23.34-.53.63-.86.86,1.69.64,2.96,2.06,3.42,3.81,2.55-2.94,2.22-7.39-.72-9.94S5.22.42,2.68,3.37c-2.29,2.64-2.29,6.56,0,9.21h0ZM8.15,15.06c.17-.01.46-.03.76-.06,1.28-.16,2.49-.67,3.5-1.48.09-.05.13-.16.1-.26-.09-.31-.14-.63-.25-.92-.89-2.35-3.51-3.53-5.86-2.65-1.54.58-2.65,1.96-2.89,3.59,0,.09.03.17.1.24,1.29,1.03,2.89,1.58,4.54,1.55ZM10.43,6c0-1.34-1.08-2.43-2.42-2.43-1.34,0-2.43,1.08-2.43,2.42,0,1.34,1.08,2.43,2.42,2.43,0,0,0,0,0,0,1.34,0,2.42-1.08,2.43-2.42Z"/>
  </g>
</svg>