<?xml version="1.0" encoding="UTF-8"?>
<svg id="Layer_2" data-name="Layer 2" xmlns="http://www.w3.org/2000/svg" xmlns:xlink="http://www.w3.org/1999/xlink" viewBox="0 0 22.8 24">
  <defs>
    <style>
      .cls-1 {
        fill: #f0504b;
      }

      .cls-2 {
        fill: none;
      }

      .cls-3 {
        fill: #e8ecf3;
      }

      .cls-4 {
        fill: #e8ebf2;
      }

      .cls-5 {
        fill: #fdf5f5;
      }

      .cls-6 {
        fill: #d1dae9;
      }

      .cls-7 {
        clip-path: url(#clippath);
      }
    </style>
    <clipPath id="clippath">
      <rect class="cls-2" width="22.8" height="24"/>
    </clipPath>
  </defs>
  <g id="Layer_1-2" data-name="Layer 1">
    <g id="Group_4026" data-name="Group 4026">
      <g class="cls-7">
        <g id="Group_4025" data-name="Group 4025">
          <path id="Path_8388" data-name="Path 8388" class="cls-3" d="M21.51,12.81H1.3V4.75s.1-.24.1-.24c1.12-.22,4.22.65,4.4-.95.13-1.07-.1-2.36,0-3.45l.34-.11,14.67.05c.39.19.65.57.7,1v11.76ZM4.65,7.21c-.49.55-.17.94.5,1,4,.37,8.56-.29,12.61,0,.35.02.76-.34.6-.7-.09-.11-.19-.21-.3-.3H4.65ZM4.65,9.72c-.34.14-.23.9,0,.9h13.51c.28,0,.28-.9,0-.9H4.65Z"/>
          <path id="Path_8389" data-name="Path 8389" class="cls-4" d="M21.51,20.32c-.13.89.42,3.32-.7,3.66l-18.74.02c-1.24-.28-.63-2.76-.77-3.68,6.61-.33,13.65.44,20.21,0"/>
          <path id="Path_8390" data-name="Path 8390" class="cls-1" d="M1.3,12.81h20.21c.76.08,1.13.38,1.21,1.15.13,1.83.12,3.66-.03,5.48-.12.66-.58.85-1.18.87-6.53.29-13.54.17-20.21,0-.56.07-1.08-.32-1.18-.87-.15-1.82-.16-3.66-.03-5.48.07-.77.45-1.07,1.21-1.15M6.4,14.87v3.4c0,.27.41.34.61.21s.05-.99.09-1.26c.72.02,1.8.09,2.22-.63.38-.58.21-1.36-.37-1.73-.09-.06-.19-.11-.3-.14-.38-.12-2.14-.25-2.26.16M9.99,14.86v3.5c.04.06.09.11.15.15h1.8c.27-.11.53-.26.75-.45.82-.73.9-1.98.18-2.8-.27-.31-.64-.53-1.04-.62-.34-.06-1.73-.14-1.83.23M14.7,15.32h1.75c.29,0,.29-.7,0-.7h-2.3c-.05.04-.1.09-.15.15v3.6c0,.17.51.24.65-.05.16-.32-.01-1.02.05-1.4h1.55c.45,0,.19-.7,0-.7h-1.55v-.9Z"/>
          <path id="Path_8391" data-name="Path 8391" class="cls-6" d="M1.4,4.51L5.8.11c-.1,1.09.13,2.39,0,3.45-.19,1.6-3.29.73-4.41.95"/>
          <path id="Path_8392" data-name="Path 8392" class="cls-6" d="M4.65,7.21h13.41c.11.09.21.19.3.3.16.36-.25.72-.6.7-4.06-.28-8.62.37-12.61,0-.67-.06-.99-.46-.5-1.01"/>
          <path id="Path_8393" data-name="Path 8393" class="cls-6" d="M4.65,9.71h13.51c.28,0,.28.9,0,.9H4.65c-.23,0-.34-.76,0-.9"/>
          <path id="Path_8394" data-name="Path 8394" class="cls-5" d="M10,14.87c.1-.36,1.49-.28,1.83-.23,1.07.24,1.74,1.3,1.5,2.37-.09.41-.31.78-.63,1.06-.22.19-.48.34-.75.45h-1.8c-.05-.04-.1-.09-.15-.15v-3.5ZM10.7,17.92c2.67.31,2.69-3.04,0-2.6v2.6Z"/>
          <path id="Path_8395" data-name="Path 8395" class="cls-5" d="M6.4,14.87c.11-.4,1.87-.28,2.26-.16.66.21,1.02.92.81,1.58-.03.11-.08.21-.14.3-.42.72-1.5.65-2.22.63-.04.27.1,1.12-.09,1.26s-.61.07-.61-.21v-3.4ZM7.1,16.52c2.29.35,2.32-1.56,0-1.2v1.2Z"/>
          <path id="Path_8396" data-name="Path 8396" class="cls-5" d="M14.7,15.32v.9h1.55c.19,0,.45.7,0,.7h-1.55c-.06.38.11,1.08-.05,1.4-.14.29-.65.22-.65.05v-3.6c.04-.05.09-.1.15-.15h2.3c.29,0,.29.7,0,.7h-1.75Z"/>
          <path id="Path_8397" data-name="Path 8397" class="cls-1" d="M10.7,17.92v-2.6c2.69-.44,2.67,2.91,0,2.6"/>
          <path id="Path_8398" data-name="Path 8398" class="cls-1" d="M7.1,16.52v-1.21c2.32-.36,2.29,1.55,0,1.2"/>
        </g>
      </g>
    </g>
  </g>
</svg>