<?xml version="1.0" encoding="UTF-8"?>
<svg id="Layer_2" data-name="Layer 2" xmlns="http://www.w3.org/2000/svg" xmlns:xlink="http://www.w3.org/1999/xlink" viewBox="0 0 15.99 16">
  <defs>
    <style>
      .cls-1 {
        fill: none;
      }

      .cls-2 {
        fill: silver;
      }

      .cls-3 {
        clip-path: url(#clippath);
      }
    </style>
    <clipPath id="clippath">
      <rect class="cls-1" width="15.99" height="16"/>
    </clipPath>
  </defs>
  <g id="Layer_1-2" data-name="Layer 1">
    <g id="Group_4068" data-name="Group 4068">
      <g class="cls-3">
        <g id="Group_4040" data-name="Group 4040">
          <path id="Path_8437" data-name="Path 8437" class="cls-2" d="M15.46,3.89c-.43-.48-.86-.97-1.3-1.45l-.11-.13c-.44-.49-.88-.98-1.31-1.47-.49-.56-1.2-.88-1.94-.85-1.99.01-3.97.01-5.96,0h-2.19c-.25,0-.5.01-.75.04C.99.15.26.82.07,1.71c-.05.31-.08.62-.07.93v10.72c0,.25.01.5.04.74.11.9.78,1.64,1.67,1.82.28.05.57.07.86.07h11.14c.7.03,1.38-.28,1.81-.83.34-.44.5-.98.47-1.53V5.3c0-.52-.19-1.02-.53-1.4M4.45,12.37v-1.02c-.03-.43.21-.84.6-1.02.19-.08.4-.11.6-.1.79,0,1.58,0,2.37,0h2.31c.15,0,.31.02.45.05.44.11.74.51.74.97.01.73.01,1.45.01,2.18v1.21c0,.06-.01.12-.06.17h0c-.06.05-.14.07-.21.06h-6.52c-.14.03-.28-.06-.31-.2,0-.04,0-.07,0-.11,0-.73,0-1.47,0-2.2M12.93,14.87c-.06,0-.12-.02-.17-.06-.05-.06-.07-.13-.06-.21v-2.88c0-.29-.02-.57-.07-.85-.17-1-1.03-1.74-2.05-1.76-.72-.03-1.44-.04-2.15-.04-.47,0-.94,0-1.41,0h-1.14c-.51-.03-1.02.07-1.48.31-.63.34-1.04.99-1.08,1.7-.05.74-.05,1.49-.04,2.22,0,.41,0,.83,0,1.24,0,.17,0,.23-.06.28s-.11.05-.27.05c-.28,0-.56-.02-.83-.03-.54,0-.97-.44-.98-.98-.04-.71-.04-1.43-.03-2.14V3.13c0-.31.01-.64.04-1.03.03-.5.43-.9.92-.93.4-.02.72-.04,1.01-.04h2.8c1.52,0,3.03,0,4.54-.01.64-.05,1.27.22,1.68.72.59.71,1.24,1.42,1.81,2.04l.65.71c.22.27.32.61.29.95v7.26c0,.36-.02.72-.03,1.09-.02.5-.41.91-.91.94-.17.01-.35.02-.55.02-.13,0-.26,0-.43.02"/>
          <path id="Path_8438" data-name="Path 8438" class="cls-2" d="M10.43,3.3h-4.89c-.32.01-.56.27-.55.59,0,.28.21.5.48.55.07,0,.13.01.2,0h4.62c.11,0,.22,0,.32-.03.24-.06.4-.27.41-.51.01-.16-.04-.32-.15-.43-.12-.12-.28-.18-.45-.18"/>
        </g>
      </g>
    </g>
  </g>
</svg>