<?xml version="1.0" encoding="UTF-8"?>
<svg id="Layer_2" data-name="Layer 2" xmlns="http://www.w3.org/2000/svg" xmlns:xlink="http://www.w3.org/1999/xlink" viewBox="0 0 30 30">
  <defs>
    <style>
      .cls-1 {
        fill: #fff;
      }

      .cls-2 {
        fill: none;
      }

      .cls-3 {
        fill: #00c770;
      }

      .cls-4 {
        clip-path: url(#clippath);
      }
    </style>
    <clipPath id="clippath">
      <rect class="cls-2" x="7" y="6.46" width="15.99" height="16"/>
    </clipPath>
  </defs>
  <g id="Layer_1-2" data-name="Layer 1">
    <g id="save_-_solid" data-name="save - solid">
      <rect id="Rectangle_510" data-name="Rectangle 510" class="cls-3" width="30" height="30" rx="5" ry="5"/>
      <g id="Group_4046" data-name="Group 4046">
        <g class="cls-4">
          <g id="Group_4045" data-name="Group 4045">
            <path id="Path_8445" data-name="Path 8445" class="cls-1" d="M22.46,10.35c-.43-.48-.86-.97-1.3-1.45l-.11-.13c-.44-.49-.88-.98-1.31-1.47-.49-.56-1.2-.88-1.94-.85-1.99.01-3.97.01-5.96,0h-2.19c-.25,0-.5.01-.75.04-.9.11-1.64.78-1.82,1.67-.05.31-.08.62-.07.93v10.72c0,.25.01.5.04.75.11.9.78,1.64,1.67,1.82.28.05.57.07.86.07h11.14c.7.03,1.38-.28,1.81-.83.34-.44.5-.98.47-1.53v-8.34c0-.52-.19-1.02-.53-1.4M12.55,9.76h4.89c.17,0,.33.06.45.18.11.12.16.27.15.43-.01.24-.18.45-.41.51-.11.03-.22.04-.32.03h-4.62c-.07,0-.13,0-.2,0-.32-.02-.56-.29-.54-.61.02-.32.29-.56.61-.54M18.49,21.28h0c-.06.05-.14.07-.21.06h-6.53c-.09.01-.17-.02-.24-.07-.06-.07-.08-.15-.07-.24,0-.73.01-1.47,0-2.2v-1.02c-.03-.43.21-.84.6-1.02.19-.08.4-.11.6-.1.79,0,1.58,0,2.37,0h2.31c.15,0,.31.02.45.05.44.11.74.51.74.97.01.73.01,1.45.01,2.18v1.21c0,.06-.01.12-.06.17"/>
          </g>
        </g>
      </g>
    </g>
  </g>
</svg>