<?xml version="1.0" encoding="UTF-8"?>
<svg id="Layer_2" data-name="Layer 2" xmlns="http://www.w3.org/2000/svg" viewBox="0 0 16 15.18">
  <defs>
    <style>
      .cls-1 {
        fill: #fff;
      }
    </style>
  </defs>
  <g id="Icons">
    <g id="Group_243" data-name="Group 243">
      <path id="Path_200" data-name="Path 200" class="cls-1" d="M15.85,9c.2-.94.2-1.91.01-2.85-.1-.53-.52-.94-1.05-1.02-.91-.12-1.55-.95-1.43-1.86.02-.13.05-.26.1-.38.06-.15.09-.31.08-.47,0-.38-.18-.74-.47-.98-.67-.56-1.42-1-2.23-1.31-.56-.26-1.23-.09-1.59.41-.32.37-.79.58-1.27.59-.49,0-.96-.22-1.28-.6C6.48.2,6.11,0,5.71,0c-.19,0-.38.04-.56.11-.72.28-1.4.66-2.01,1.12-.52.34-.72,1.01-.47,1.58.08.2.11.41.11.62-.02.84-.66,1.54-1.5,1.62-.55.05-1.01.46-1.12,1-.19.9-.21,1.82-.06,2.73.08.61.58,1.08,1.19,1.13.58.06,1.08.43,1.3.96.2.44.2.95,0,1.39-.24.51-.1,1.12.34,1.48.69.58,1.48,1.03,2.32,1.34.19.08.4.1.61.08.37-.06.7-.26.92-.57.3-.43.8-.69,1.32-.68h.07c.51.01.98.27,1.28.68.36.47.99.63,1.53.39.72-.3,1.4-.7,2.01-1.19.51-.35.69-1.01.43-1.57-.13-.31-.15-.65-.07-.97.14-.69.72-1.21,1.43-1.28.52-.07.95-.46,1.06-.98ZM12.74,11.11c-.11.45-.08.92.09,1.35.16.3.06.68-.24.86-.56.46-1.18.83-1.85,1.1-.09.04-.19.06-.29.06-.2,0-.38-.1-.5-.26-.41-.56-1.06-.9-1.75-.92h-.11c-.72,0-1.4.34-1.82.93-.11.17-.3.29-.5.32h-.03c-.09,0-.19-.01-.27-.04-.78-.28-1.5-.7-2.13-1.23-.23-.18-.29-.49-.16-.75.28-.6.28-1.3,0-1.9-.32-.73-1-1.24-1.79-1.33-.34,0-.62-.26-.65-.6-.14-.83-.12-1.68.06-2.5.06-.28.29-.48.57-.5,1.26-.12,2.18-1.24,2.05-2.5-.02-.2-.07-.4-.14-.58-.16-.31-.04-.69.26-.86.56-.43,1.19-.78,1.85-1.04.1-.04.21-.07.33-.07.21,0,.41.12.53.29.82.98,2.27,1.1,3.25.29.1-.08.19-.18.28-.28.18-.3.57-.4.88-.22.74.29,1.44.69,2.05,1.2.16.12.25.31.24.51,0,.09-.02.17-.05.25-.44,1.19.16,2.51,1.34,2.95.15.06.31.1.48.12.28.03.5.25.54.52.17.86.17,1.74-.01,2.6-.06.26-.28.46-.55.49-.95.11-1.73.81-1.93,1.74Z"/>
      <path id="Path_201" data-name="Path 201" class="cls-1" d="M7.94,10.45c1.58.02,2.87-1.25,2.89-2.82.02-1.58-1.25-2.87-2.82-2.89h-.04c-1.58,0-2.86,1.27-2.87,2.84s1.27,2.86,2.84,2.87ZM6.43,6c.42-.41.98-.64,1.57-.63,1.2-.02,2.2.94,2.22,2.14,0,.03,0,.05,0,.08,0,1.22-.98,2.22-2.21,2.23,0,0-.01,0-.02,0h-.02c-1.24-.02-2.22-1.05-2.19-2.28.01-.57.24-1.12.65-1.53h0Z"/>
    </g>
  </g>
</svg>