<?xml version="1.0" encoding="UTF-8"?>
<svg id="Layer_2" data-name="Layer 2" xmlns="http://www.w3.org/2000/svg" xmlns:xlink="http://www.w3.org/1999/xlink" viewBox="0 0 10.76 12">
  <defs>
    <style>
      .cls-1 {
        fill: none;
      }

      .cls-2 {
        fill: #d3d3d3;
      }

      .cls-3 {
        clip-path: url(#clippath);
      }
    </style>
    <clipPath id="clippath">
      <rect class="cls-1" width="10.76" height="12"/>
    </clipPath>
  </defs>
  <g id="Layer_1-2" data-name="Layer 1">
    <g id="doc_icon" data-name="doc icon">
      <g class="cls-3">
        <g id="Group_4027" data-name="Group 4027">
          <path id="Path_8399" data-name="Path 8399" class="cls-2" d="M1.64,0h6.25c2.38.42,1.45,3.13,1.62,4.83-.06.25-.31.41-.57.35-.19-.04-.34-.2-.36-.4-.14-.92.14-2.2-.01-3.12-.09-.42-.47-.73-.9-.74-1.87-.16-3.97.12-5.85,0-.52.07-.9.53-.87,1.05.14,2.62-.18,5.41,0,8.01.1,1.51,1.55.93,2.55,1.05.26.03.45.26.42.52-.02.21-.18.38-.38.42-.74.06-1.48.04-2.21-.08-.61-.2-1.08-.7-1.25-1.32C-.07,7.64.05,4.68.02,1.75.08.86.76.13,1.64,0"/>
          <path id="Path_8400" data-name="Path 8400" class="cls-2" d="M9.13,6.36c.77-.13,1.5.39,1.63,1.16.07.42-.05.84-.33,1.16-.78.9-1.62,1.75-2.52,2.53-.07.07-.16.13-.24.18-.66.23-1.33.42-2.01.57-.4.03-.58-.24-.52-.62.16-.67.37-1.32.62-1.95.93-.76,1.83-2.07,2.76-2.76.19-.13.4-.22.62-.27M9.27,7.3c-.08.02-.33.15-.31.24l.63.64c.23-.13.31-.42.18-.64-.1-.18-.3-.27-.5-.23M6.29,10.8l.93-.26,1.66-1.66s.02-.06,0-.09c-.08-.16-.49-.43-.61-.61l-1.71,1.7-.28.92Z"/>
          <path id="Path_8401" data-name="Path 8401" class="cls-2" d="M2.25,2.81h5c.26.03.44.26.41.52-.03.23-.22.4-.45.41H2.29c-.26-.04-.43-.29-.39-.55.03-.18.17-.33.35-.38"/>
          <path id="Path_8402" data-name="Path 8402" class="cls-2" d="M2.25,4.68h5c.26.03.44.26.41.52-.03.23-.22.4-.45.41H2.29c-.26-.04-.43-.29-.39-.55.03-.18.17-.33.35-.38"/>
          <path id="Path_8403" data-name="Path 8403" class="cls-2" d="M2.24,6.55h3.12c.26.04.43.29.38.54-.04.19-.19.35-.38.38-.93-.1-2.19.14-3.08,0-.26-.05-.43-.3-.38-.56.03-.18.16-.32.34-.37"/>
        </g>
      </g>
    </g>
  </g>
</svg>