<?xml version="1.0" encoding="UTF-8"?>
<svg id="Layer_2" data-name="Layer 2" xmlns="http://www.w3.org/2000/svg" viewBox="0 0 16 16">
  <defs>
    <style>
      .cls-1 {
        fill: #fff;
      }

      .cls-2 {
        fill: #f94747;
      }
    </style>
  </defs>
  <g id="Layer_1-2" data-name="Layer 1">
    <g id="red_x" data-name="red x">
      <path id="Rectangle_5041" data-name="Rectangle 5041" class="cls-2" d="M8,0h0c4.42,0,8,3.58,8,8h0c0,4.42-3.58,8-8,8h0C3.58,16,0,12.42,0,8h0C0,3.58,3.58,0,8,0Z"/>
      <path id="X" class="cls-1" d="M4.34,12.19c.34.14.73.05.97-.23.72-.7,1.43-1.41,2.13-2.13.14-.17.34-.28.56-.3h0c.21.01.41.12.54.28.53.55,1.07,1.09,1.61,1.62l.52.51c.2.24.52.35.83.28.34-.05.62-.3.71-.63.12-.33.03-.69-.23-.93l-.38-.38c-.56-.57-1.12-1.14-1.71-1.69-.19-.15-.31-.38-.33-.63.02-.24.13-.46.32-.61.62-.58,1.22-1.19,1.81-1.8l.18-.19c.21-.2.34-.47.35-.76,0-.24-.11-.46-.28-.62-.38-.35-.97-.33-1.32.05-.01.01-.02.03-.03.04l-.41.41c-.55.54-1.1,1.09-1.63,1.65-.14.17-.33.27-.55.28h0c-.22-.02-.42-.12-.56-.29-.41-.43-.83-.84-1.25-1.26l-.8-.8c-.19-.21-.45-.33-.73-.34-.36,0-.69.22-.82.55-.17.34-.09.75.19,1,.7.72,1.41,1.43,2.13,2.13.17.14.27.34.28.56-.01.22-.12.42-.29.56-.55.53-1.08,1.08-1.61,1.62l-.48.49c-.23.19-.34.48-.31.78.02.36.26.66.6.77"/>
    </g>
  </g>
</svg>